<?xml version="1.0" encoding="utf-8" ?>
<svg baseProfile="full" height="4080px" version="1.1" viewBox="0,0,3072,4080" width="3072px" xmlns="http://www.w3.org/2000/svg" xmlns:ev="http://www.w3.org/2001/xml-events" xmlns:xlink="http://www.w3.org/1999/xlink"><defs /><path d="M 1873.00,978.50 L 1801.00,978.50 L 1778.00,980.50 L 1773.50,984.00 L 1809.00,987.50 L 1902.00,986.50 L 1910.00,985.50 L 1910.00,981.50 L 1873.00,978.50 Z" fill="white" stroke="black" stroke-width="2" /><path d="M 1733.00,2437.50 L 1912.00,2437.50 L 1931.00,2434.50 L 2038.00,2397.50 L 2094.00,2371.50 L 2132.00,2346.50 L 2169.50,2310.00 L 2217.50,2243.00 L 2236.50,2205.00 L 2283.50,2090.00 L 2380.50,1810.00 L 2401.50,1733.00 L 2420.50,1631.00 L 2420.50,1376.00 L 2418.50,1365.00 L 2390.50,1324.00 L 2343.00,1273.50 L 2314.00,1248.50 L 2086.00,1069.50 L 2013.00,1019.50 L 1987.00,1005.50 L 1950.00,991.50 L 1743.00,991.50 L 1708.00,1006.50 L 1666.00,1031.50 L 1619.00,1069.50 L 1579.50,1107.00 L 1544.50,1145.00 L 1505.50,1196.00 L 1468.50,1251.00 L 1437.50,1351.00 L 1434.50,1963.00 L 1447.50,2257.00 L 1474.50,2294.00 L 1504.00,2321.50 L 1616.00,2384.50 L 1733.00,2437.50 Z" fill="white" stroke="black" stroke-width="2" /><path d="M 1632.00,1059.50 L 1632.00,1059.50 Z" fill="white" stroke="black" stroke-width="2" /><path d="M 1567.50,1122.00 L 1568.00,1126.50 L 1576.00,1129.50 L 1580.50,1126.00 L 1577.00,1118.50 L 1567.50,1122.00 Z" fill="white" stroke="black" stroke-width="2" /><path d="M 902.00,1152.50 L 938.00,1151.50 L 940.50,1149.00 L 927.00,1145.50 L 900.00,1145.50 L 885.50,1150.00 L 902.00,1152.50 Z" fill="white" stroke="black" stroke-width="2" /><path d="M 958.00,1156.50 L 869.00,1156.50 L 857.50,1162.00 L 863.00,1165.50 L 964.00,1165.50 L 969.50,1161.00 L 958.00,1156.50 Z" fill="white" stroke="black" stroke-width="2" /><path d="M 813.50,1223.00 L 611.50,2715.00 L 604.50,2871.00 L 601.50,3035.00 L 604.50,3058.00 L 631.50,3122.00 L 696.50,3214.00 L 749.00,3263.50 L 779.00,3278.50 L 934.00,3279.50 L 945.00,3277.50 L 966.00,3264.50 L 999.00,3237.50 L 1056.50,3176.00 L 1085.50,3135.00 L 1132.50,3046.00 L 1152.50,2983.00 L 1153.50,2969.00 L 1153.50,2691.00 L 1008.50,1212.00 L 978.00,1171.50 L 852.00,1170.50 L 815.50,1212.00 L 813.50,1223.00 Z" fill="white" stroke="black" stroke-width="2" /><path d="M 1019.50,1237.00 L 1017.50,1225.00 L 1013.50,1225.00 L 1013.00,1311.50 L 1016.50,1311.00 L 1019.50,1237.00 Z" fill="white" stroke="black" stroke-width="2" /><path d="M 803.50,1262.00 L 803.50,2014.00 L 809.00,2141.50 L 810.50,1249.00 L 809.50,1237.00 L 805.50,1237.00 L 803.50,1262.00 Z" fill="white" stroke="black" stroke-width="2" /><path d="M 1029.50,1440.00 L 1028.50,1300.00 L 1027.50,1275.00 L 1024.00,1274.50 L 1022.50,1504.00 L 1023.50,1529.00 L 1026.50,1529.00 L 1029.50,1440.00 Z" fill="white" stroke="black" stroke-width="2" /><path d="M 1463.50,1288.00 L 1462.50,1276.00 L 1458.00,1274.50 L 1456.50,1287.00 L 1457.50,1312.00 L 1462.00,1316.50 L 1463.50,1288.00 Z" fill="white" stroke="black" stroke-width="2" /><path d="M 1446.50,1314.00 L 1447.50,1351.00 L 1453.00,1361.50 L 1452.50,1301.00 L 1448.50,1302.00 L 1446.50,1314.00 Z" fill="white" stroke="black" stroke-width="2" /><path d="M 800.50,1364.00 L 799.50,1326.00 L 796.50,1326.00 L 794.50,1416.00 L 798.00,1708.50 L 800.50,1364.00 Z" fill="white" stroke="black" stroke-width="2" /><path d="M 2430.50,1402.00 L 2428.00,1389.50 L 2424.50,1390.00 L 2423.50,1402.00 L 2426.00,1580.50 L 2430.50,1542.00 L 2430.50,1402.00 Z" fill="white" stroke="black" stroke-width="2" /><path d="M 1427.50,1441.00 L 1427.50,1695.00 L 1431.50,1771.00 L 1434.00,1771.50 L 1434.50,1428.00 L 1430.50,1402.00 L 1427.50,1441.00 Z" fill="white" stroke="black" stroke-width="2" /><path d="M 1019.50,1644.00 L 1019.50,1517.00 L 1015.50,1454.00 L 1013.00,1452.50 L 1012.50,1644.00 L 1014.00,1669.50 L 1017.50,1669.00 L 1019.50,1644.00 Z" fill="white" stroke="black" stroke-width="2" /><path d="M 1421.50,1618.00 L 1422.00,1580.50 L 1421.50,1618.00 Z" fill="white" stroke="black" stroke-width="2" /><path d="M 2411.50,1669.00 L 2410.50,1634.00 L 2406.00,1619.50 L 2405.50,1695.00 L 2409.50,1695.00 L 2411.50,1669.00 Z" fill="white" stroke="black" stroke-width="2" /><path d="M 1010.50,1683.00 L 1006.50,1642.00 L 1004.00,1632.50 L 1002.50,1645.00 L 1005.00,1771.50 L 1007.50,1771.00 L 1010.50,1733.00 L 1010.50,1683.00 Z" fill="white" stroke="black" stroke-width="2" /><path d="M 2400.50,1643.00 L 2401.00,1640.50 L 2400.50,1643.00 Z" fill="white" stroke="black" stroke-width="2" /><path d="M 1417.50,1810.00 L 1417.50,2014.00 L 1422.00,2090.50 L 1424.50,2065.00 L 1424.50,1734.00 L 1421.50,1683.00 L 1417.50,1810.00 Z" fill="white" stroke="black" stroke-width="2" /><path d="M 2380.50,1746.00 L 2381.00,1741.50 L 2380.50,1746.00 Z" fill="white" stroke="black" stroke-width="2" /><path d="M 1000.50,1772.00 L 998.50,1748.00 L 996.00,1743.50 L 993.50,1748.00 L 993.50,1848.00 L 996.00,1861.50 L 1000.50,1835.00 L 1000.50,1772.00 Z" fill="white" stroke="black" stroke-width="2" /><path d="M 2371.50,1783.00 L 2371.50,1783.00 Z" fill="white" stroke="black" stroke-width="2" /><path d="M 2353.00,1831.50 L 2353.00,1831.50 Z" fill="white" stroke="black" stroke-width="2" /><path d="M 991.50,1873.00 L 988.50,1838.00 L 987.00,1833.50 L 983.50,1836.00 L 985.00,1937.50 L 989.50,1937.00 L 991.50,1873.00 Z" fill="white" stroke="black" stroke-width="2" /><path d="M 2334.00,1881.50 L 2334.00,1887.50 L 2334.00,1881.50 Z" fill="white" stroke="black" stroke-width="2" /><path d="M 981.50,1951.00 L 977.50,1915.00 L 974.50,1914.00 L 976.00,2039.50 L 978.50,2039.00 L 981.50,2001.00 L 981.50,1951.00 Z" fill="white" stroke="black" stroke-width="2" /><path d="M 2314.00,1945.50 L 2315.00,1950.50 L 2314.00,1945.50 Z" fill="white" stroke="black" stroke-width="2" /><path d="M 794.50,2091.00 L 794.50,2281.00 L 798.00,2307.50 L 800.50,2294.00 L 800.50,2065.00 L 797.50,2002.00 L 794.50,2091.00 Z" fill="white" stroke="black" stroke-width="2" /><path d="M 2293.00,2013.50 L 2296.50,2011.00 L 2293.00,2010.50 L 2293.00,2013.50 Z" fill="white" stroke="black" stroke-width="2" /><path d="M 971.50,2040.00 L 969.50,2015.00 L 966.00,2011.50 L 964.50,2016.00 L 966.00,2141.50 L 969.50,2141.00 L 971.50,2116.00 L 971.50,2040.00 Z" fill="white" stroke="black" stroke-width="2" /><path d="M 1427.50,2078.00 L 1427.50,2192.00 L 1432.00,2218.50 L 1434.50,2192.00 L 1434.50,2040.00 L 1430.50,2041.00 L 1427.50,2078.00 Z" fill="white" stroke="black" stroke-width="2" /><path d="M 2238.50,2165.00 L 2235.50,2163.00 L 2236.00,2168.50 L 2238.50,2165.00 Z" fill="white" stroke="black" stroke-width="2" /><path d="M 1437.50,2230.00 L 1438.50,2241.00 L 1443.50,2242.00 L 1444.50,2207.00 L 1442.00,2190.50 L 1437.50,2206.00 L 1437.50,2230.00 Z" fill="white" stroke="black" stroke-width="2" /><path d="M 2210.50,2228.00 L 2208.50,2227.00 L 2209.00,2229.50 L 2210.50,2228.00 Z" fill="white" stroke="black" stroke-width="2" /><path d="M 2179.00,2286.50 L 2169.50,2290.00 L 2177.00,2298.50 L 2180.50,2294.00 L 2179.00,2286.50 Z" fill="white" stroke="black" stroke-width="2" /><path d="M 1640.00,2393.50 L 1640.00,2393.50 Z" fill="white" stroke="black" stroke-width="2" /><path d="M 1863.00,2441.50 L 1781.00,2441.50 L 1760.00,2442.50 L 1755.50,2446.00 L 1788.00,2450.50 L 1854.00,2450.50 L 1880.00,2446.50 L 1879.00,2443.50 L 1863.00,2441.50 Z" fill="white" stroke="black" stroke-width="2" /><path d="M 749.50,2500.00 L 760.00,2506.50 L 764.50,2503.00 L 761.00,2495.50 L 749.50,2500.00 Z" fill="white" stroke="black" stroke-width="2" /><path d="M 711.00,2545.50 L 706.50,2553.00 L 710.00,2556.50 L 717.00,2555.50 L 717.50,2550.00 L 711.00,2545.50 Z" fill="white" stroke="black" stroke-width="2" /><path d="M 707.50,2567.00 L 701.00,2558.50 L 699.50,2569.00 L 707.50,2567.00 Z" fill="white" stroke="black" stroke-width="2" /><path d="M 1133.50,2668.00 L 1134.00,2664.50 L 1133.50,2668.00 Z" fill="white" stroke="black" stroke-width="2" /><path d="M 1163.50,2919.00 L 1163.50,2741.00 L 1161.50,2716.00 L 1158.00,2715.50 L 1156.50,2919.00 L 1158.00,2944.50 L 1161.50,2944.00 L 1163.50,2919.00 Z" fill="white" stroke="black" stroke-width="2" /><path d="M 601.50,2767.00 L 605.50,2789.00 L 608.50,2790.00 L 607.00,2727.50 L 604.50,2728.00 L 602.50,2741.00 L 601.50,2767.00 Z" fill="white" stroke="black" stroke-width="2" /><path d="M 592.50,2792.00 L 592.50,3008.00 L 594.50,3021.00 L 598.00,3021.50 L 599.50,2792.00 L 597.00,2766.50 L 592.50,2792.00 Z" fill="white" stroke="black" stroke-width="2" /><path d="M 1168.50,2843.00 L 1169.00,2828.50 L 1168.50,2843.00 Z" fill="white" stroke="black" stroke-width="2" /><path d="M 583.50,2869.00 L 583.50,2932.00 L 584.50,2944.00 L 588.00,2944.50 L 588.50,2843.00 L 584.50,2843.00 L 583.50,2869.00 Z" fill="white" stroke="black" stroke-width="2" /><path d="M 675.00,3165.50 L 668.50,3171.00 L 673.00,3185.50 L 678.50,3171.00 L 675.00,3165.50 Z" fill="white" stroke="black" stroke-width="2" /><path d="M 681.00,3190.50 L 686.50,3188.00 L 685.00,3178.50 L 676.50,3184.00 L 681.00,3190.50 Z" fill="white" stroke="black" stroke-width="2" /><path d="M 686.50,3196.00 L 690.00,3203.50 L 696.50,3199.00 L 694.00,3191.50 L 686.50,3196.00 Z" fill="white" stroke="black" stroke-width="2" /><path d="M 832.00,3291.50 L 901.00,3291.50 L 914.00,3289.50 L 917.50,3286.00 L 908.00,3283.50 L 822.00,3283.50 L 812.00,3284.50 L 809.50,3286.00 L 811.00,3288.50 L 832.00,3291.50 Z" fill="white" stroke="black" stroke-width="2" /></svg>