<?xml version="1.0" encoding="utf-8" ?>
<svg baseProfile="full" height="4080" version="1.1" width="3072" xmlns="http://www.w3.org/2000/svg" xmlns:ev="http://www.w3.org/2001/xml-events" xmlns:xlink="http://www.w3.org/1999/xlink"><defs /><path d="M 1485.7371537266251,1077.1343577988896 L 1591.3581139615208,1094.95861819566 L 1688.3909556254023,1140.38546352078 L 1775.567872771449,1202.8086024572044 L 1858.9467119474773,1270.2805089007093 L 1941.9089084859816,1338.3046554443436 L 2024.868274008691,1406.31799244189 L 2106.3871923199313,1476.0334572295235 L 2174.313003301013,1558.4722469631668 L 2197.2487276054144,1662.6361428293467 L 2191.78448861166,1769.6687388680364 L 2180.0021201823497,1876.3015887220145 L 2165.915678698943,1982.6349052461542 L 2150.5890212600307,2088.802704359098 L 2128.262766080825,2193.710684871607 L 2101.3116974663626,2297.565916276738 L 2069.9733315487183,2400.1344581172743 L 2033.734803027037,2501.109763634373 L 1993.9084486543302,2600.7154230534097 L 1949.4990904470517,2698.353545990749 L 1899.2141455080916,2793.0798961880682 L 1823.5248812953384,2868.54224452445 L 1727.9065105536406,2916.37821405885 L 1627.2881763122912,2953.479791340644 L 1524.6946988294762,2984.824485742277 L 1419.61253268569,3003.930861468266 L 1313.24661410404,2990.6431339792252 L 1214.7403402552113,2948.4115743932107 L 1118.4272190660536,2901.224506651107 L 1024.4450676720662,2849.581658965957 L 938.8523301446677,2785.088268243214 L 900.7869074149532,2686.0107304941275 L 888.2642664913342,2579.549605634813 L 879.2741700763677,2472.6439260128755 L 875.3378392728207,2365.447080224717 L 874.7512723945856,2258.167667177965 L 875.7072715231109,2150.906248229072 L 877.3456474081896,2043.6103892211586 L 886.495198372479,1936.7619891073032 L 900.4168775690691,1830.407005962527 L 920.2939015637561,1724.9856979182587 L 937.193691080482,1619.0490267229466 L 953.7095067369496,1513.0373512894519 L 983.4825122225798,1410.195641376789 L 1038.1616701976036,1318.0728769280388 L 1106.28290395346,1235.2768488649883 L 1184.9856406972488,1162.5536934918891 L 1276.2091832513447,1106.3110379818004 L 1378.6753965989164,1076.0691385317343 L 1485.7332589387381,1077.1144746102207 Z" fill="black" stroke="none" /></svg>