<?xml version="1.0" encoding="utf-8" ?>
<svg baseProfile="full" height="2550" version="1.1" width="4080" xmlns="http://www.w3.org/2000/svg" xmlns:ev="http://www.w3.org/2001/xml-events" xmlns:xlink="http://www.w3.org/1999/xlink"><defs /><path d="M 1120.5125597711758,967.0793316387178 L 1319.4244014503488,982.9988461298465 L 1518.3844088626226,998.3823224288755 L 1717.2536941569779,1014.782252991442 L 1916.2127318470955,1030.0699653932302 L 2115.0678908748723,1046.9450295668819 L 2313.9869107476065,1062.2924554392146 L 2512.7427844201975,1080.3134301264158 L 2710.2914365408146,1107.736193300347 L 2908.9006241789575,1115.8989022928909 L 3102.8756931664275,1183.7327379229612 L 3049.787317980055,1368.9096422939529 L 3052.631782617167,1565.2421619914721 L 3105.5231818248762,1750.8614597141402 L 2927.982440600344,1823.8155260557937 L 2729.7068994642195,1827.7483158027603 L 2530.0843016283616,1820.2643443139623 L 2331.3340275492724,1802.1639456024864 L 2132.568945828418,1784.5951099094013 L 1933.7064570617476,1768.0847826414042 L 1734.7926283888064,1752.1772572187579 L 1535.4672491282122,1742.393474223466 L 1336.7104482204236,1724.5042387960557 L 1139.3473270649795,1707.842273062065 L 974.476818175124,1621.348119868376 L 1005.5858862595928,1418.0703367457645 L 1027.0219142582282,1220.708971877801 L 1053.364327053056,1021.7043049581474 L 1137.5861039619965,857.8659660138126 L 1309.4412215623588,760.1702774088902 L 1541.1976371876717,722.2516841972395 L 1804.6818722538324,737.4487887300063 L 2071.720448176734,799.1001933583368 L 2314.1398863722725,900.5445004333772 L 2503.766708256344,1035.1203123062735 L 2612.427435244841,1196.1662313281709 L 2608.736453038038,1404.037318115078 L 2723.223621480771,1454.322669386128 L 2756.9073689654706,1297.1149695899148 L 2648.9375149060306,1157.3201675579407 Z" fill="black" stroke="none" /></svg>