999
"DXF R12 Output" (www.mydxf.blogspot.com)
 0 
SECTION
 2 
HEADER
 9 
$ACADVER
 1 
AC1009
 9 
$EXTMIN
 10 
 0 
 20 
 0 
 9 
$EXTMAX
 10 
 8.5 
 20 
 11 
 0 
ENDSEC
 0 
SECTION
 2 
ENTITIES
0
POLYLINE
8
Layer 1
62
7
70
1
10
0.000000
20
0.000000
66
1
0
VERTEX
8
Layer 1
10
393.100793
20
794.508560
70
0
0
VERTEX
8
Layer 1
10
421.046304
20
789.792564
70
0
0
VERTEX
8
Layer 1
10
446.719544
20
777.773393
70
0
0
VERTEX
8
Layer 1
10
469.785074
20
761.257292
70
0
0
VERTEX
8
Layer 1
10
491.845698
20
743.405372
70
0
0
VERTEX
8
Layer 1
10
513.796085
20
725.407339
70
0
0
VERTEX
8
Layer 1
10
535.745723
20
707.412167
70
0
0
VERTEX
8
Layer 1
10
557.314243
20
688.966640
70
0
0
VERTEX
8
Layer 1
10
575.286257
20
667.154737
70
0
0
VERTEX
8
Layer 1
10
581.354660
20
639.594741
70
0
0
VERTEX
8
Layer 1
10
579.908915
20
611.275736
70
0
0
VERTEX
8
Layer 1
10
576.791501
20
583.062497
70
0
0
VERTEX
8
Layer 1
10
573.064468
20
554.928509
70
0
0
VERTEX
8
Layer 1
10
569.009295
20
526.838314
70
0
0
VERTEX
8
Layer 1
10
563.102147
20
499.081446
70
0
0
VERTEX
8
Layer 1
10
555.971353
20
471.603117
70
0
0
VERTEX
8
Layer 1
10
547.679754
20
444.465225
70
0
0
VERTEX
8
Layer 1
10
538.091655
20
417.748875
70
0
0
VERTEX
8
Layer 1
10
527.554279
20
391.394911
70
0
0
VERTEX
8
Layer 1
10
515.804318
20
365.561524
70
0
0
VERTEX
8
Layer 1
10
502.499776
20
340.498542
70
0
0
VERTEX
8
Layer 1
10
482.473684
20
320.532487
70
0
0
VERTEX
8
Layer 1
10
457.174688
20
307.875903
70
0
0
VERTEX
8
Layer 1
10
430.552788
20
298.059456
70
0
0
VERTEX
8
Layer 1
10
403.408298
20
289.766183
70
0
0
VERTEX
8
Layer 1
10
375.605343
20
284.710961
70
0
0
VERTEX
8
Layer 1
10
347.462729
20
288.226668
70
0
0
VERTEX
8
Layer 1
10
321.399643
20
299.400420
70
0
0
VERTEX
8
Layer 1
10
295.916829
20
311.885316
70
0
0
VERTEX
8
Layer 1
10
271.050749
20
325.549136
70
0
0
VERTEX
8
Layer 1
10
248.404366
20
342.612991
70
0
0
VERTEX
8
Layer 1
10
238.332902
20
368.827223
70
0
0
VERTEX
8
Layer 1
10
235.019624
20
396.995027
70
0
0
VERTEX
8
Layer 1
10
232.640998
20
425.280452
70
0
0
VERTEX
8
Layer 1
10
231.599512
20
453.642915
70
0
0
VERTEX
8
Layer 1
10
231.444316
20
482.027224
70
0
0
VERTEX
8
Layer 1
10
231.697257
20
510.406772
70
0
0
VERTEX
8
Layer 1
10
232.130743
20
538.795432
70
0
0
VERTEX
8
Layer 1
10
234.551559
20
567.065703
70
0
0
VERTEX
8
Layer 1
10
238.234999
20
595.205423
70
0
0
VERTEX
8
Layer 1
10
243.494121
20
623.098109
70
0
0
VERTEX
8
Layer 1
10
247.965518
20
651.127151
70
0
0
VERTEX
8
Layer 1
10
252.335322
20
679.176038
70
0
0
VERTEX
8
Layer 1
10
260.212754
20
706.386207
70
0
0
VERTEX
8
Layer 1
10
274.679929
20
730.760324
70
0
0
VERTEX
8
Layer 1
10
292.703650
20
752.666745
70
0
0
VERTEX
8
Layer 1
10
313.527056
20
771.908056
70
0
0
VERTEX
8
Layer 1
10
337.663254
20
786.788907
70
0
0
VERTEX
8
Layer 1
10
364.774072
20
794.790399
70
0
0
VERTEX
8
Layer 1
10
393.099763
20
794.513821
70
0
0
VERTEX
8
Layer 1
10
393.100793
20
794.508560
70
0
0
SEQEND
8
Layer 1
 0 
ENDSEC
 0 
EOF